Coordinates
version=1
nRows=13
nColumns=36
inDegrees=yes

Units are S.I. units (second, meters, Newtons, ...)
If the header above contains a line with 'inDegrees', this indicates whether rotational values are in degrees (yes) or radians (no).

endheader
time	pelvis_tilt	pelvis_list	pelvis_rotation	pelvis_tx	pelvis_ty	pelvis_tz	hip_flexion_r	hip_adduction_r	hip_rotation_r	knee_angle_r	knee_angle_r_beta	ankle_angle_r	subtalar_angle_r	mtp_angle_r	hip_flexion_l	hip_adduction_l	hip_rotation_l	knee_angle_l	knee_angle_l_beta	ankle_angle_l	subtalar_angle_l	mtp_angle_l	lumbar_extension	lumbar_bending	lumbar_rotation	arm_flex_r	arm_add_r	arm_rot_r	elbow_flex_r	pro_sup_r	arm_flex_l	arm_add_l	arm_rot_l	elbow_flex_l	pro_sup_l
      1.78333330	     -5.39389815	     14.80652524	      3.93727774	      0.28548540	      0.69433670	     -0.11174242	     80.98226449	    -19.51076440	     16.57540587	     43.72637918	      0.76316929	    -15.55762225	     -2.87213589	     -7.49993555	     65.83774036	     20.10308463	     -8.61539709	     80.24584272	      1.40055417	     26.12307283	     -8.60327233	     -7.49993555	    -51.14223252	    -10.86236329	    -13.16386550	     74.82191323	      3.55074787	     48.78176460	    114.03248067	     93.76784605	     90.34715443	    -10.52706085	     56.28637775	    114.82959235	     87.59697401
      1.80000000	     -5.54826328	     14.74962834	      3.79081771	      0.29374700	      0.69639766	     -0.10765703	     80.63921155	    -19.50173365	     16.13020177	     43.20463925	      0.75406321	    -15.18293368	     -2.69079067	     -7.49993635	     65.61873218	     20.04943720	     -8.56072559	     80.18090185	      1.39942073	     26.19342341	     -8.65176298	     -7.49993635	    -50.80368442	    -10.94837377	    -12.75910386	     73.93704485	      4.47075504	     49.26377599	    114.10013604	     93.85950577	     90.37247087	    -10.98063988	     56.16971293	    114.58831325	     87.67116950
      1.81666670	     -5.65155349	     14.58612585	      3.51298434	      0.29434380	      0.69558586	     -0.10725881	     80.22018167	    -19.31609613	     15.78785383	     42.78845465	      0.74679942	    -14.73470032	     -2.56153372	     -7.49994220	     65.27765656	     19.93124545	     -8.34978600	     80.16496710	      1.39914262	     26.54452782	     -8.51483597	     -7.49994220	    -50.13250766	    -10.97618906	    -12.21214773	     73.36609154	      5.61214143	     49.78116885	    114.33174870	     93.03316574	     90.06856172	    -11.21528060	     55.69739717	    115.23066585	     86.79302506
      1.83333330	     -5.76542209	     14.40602871	      3.12378538	      0.29443496	      0.69959667	     -0.10744302	     79.79015249	    -18.98935916	     15.54218853	     42.42883166	      0.74052281	    -14.34333526	     -2.47440901	     -7.49994730	     64.95958139	     19.73001264	     -8.14363691	     80.06105095	      1.39732894	     26.80483682	     -8.33179357	     -7.49994730	    -49.63741664	    -10.97506353	    -11.91964518	     73.09809424	      6.07402335	     49.98982430	    114.58793746	     91.96106105	     90.28334138	    -11.79040748	     55.14649884	    115.04121251	     85.77938213
      1.85000000	     -5.95878011	     14.15213591	      2.95926971	      0.28757628	      0.70073495	     -0.11157583	     79.51855282	    -18.81612063	     15.26770929	     42.26424654	      0.73765026	    -14.08833839	     -2.37308881	     -7.49994771	     64.85312345	     19.57694250	     -7.88199057	     79.87912483	      1.39415373	     26.95352313	     -8.26345954	     -7.49994771	    -49.06242054	    -10.82168535	    -12.14316723	     73.99192856	      5.32117571	     49.03821381	    114.23267675	     92.06600096	     91.40492718	    -11.92981454	     54.47255679	    114.91657208	     85.91987933
      1.86666670	     -5.60302282	     13.80707866	      2.67952375	      0.28778613	      0.70852205	     -0.11174596	     78.55622997	    -18.72870377	     14.62233760	     41.84964320	      0.73041406	    -13.86107102	     -2.01911843	     -7.49994885	     64.14459924	     19.39966140	     -7.48801129	     79.55974524	      1.38857951	     27.01772683	     -8.07297328	     -7.49994885	    -49.23856014	    -10.55585894	    -12.11273128	     74.42487581	      4.89877091	     48.17286653	    113.25369902	     92.36065115	     92.51203704	    -11.88705855	     53.96537741	    114.95559428	     86.31820900
      1.88333330	     -5.50710264	     13.66373314	      2.36498538	      0.28887039	      0.71502745	     -0.11176037	     77.78825621	    -18.67017760	     14.16791976	     41.27362528	      0.72036066	    -13.67901092	     -1.86008604	     -7.49995509	     63.56801215	     19.31396132	     -7.21641448	     79.03650811	      1.37944730	     27.09819000	     -7.77187145	     -7.49995509	    -49.19109730	    -10.55686599	    -11.88645154	     74.52137892	      3.60884468	     47.13061515	    112.58900134	     90.83301943	     92.13565562	    -12.27752798	     53.68199279	    115.79963966	     85.11284474
      1.90000000	     -5.52308909	     13.34838179	      1.97820490	      0.28931651	      0.71587906	     -0.11178393	     77.02431622	    -18.49952524	     13.66854373	     40.74006208	      0.71104822	    -13.44188598	     -1.71126168	     -7.49996793	     63.01039998	     19.03707961	     -6.81596085	     78.55992897	      1.37112942	     27.26970121	     -7.30616231	     -7.49996793	    -48.84496672	    -10.41470930	    -11.36505944	     75.99171853	      3.94502273	     48.27744523	    114.36026114	     97.29380703	     92.32595890	    -12.56426596	     53.16252096	    116.91356140	     93.05013372
      1.91666670	     -5.64738022	     13.17530022	      1.65176213	      0.29004471	      0.71538816	     -0.11126565	     76.61977815	    -18.36964397	     13.37582197	     40.37516687	      0.70467960	    -13.35269528	     -1.69886199	     -7.49997090	     62.72627710	     18.76346254	     -6.64340911	     78.12661793	      1.36356672	     27.29130027	     -6.94816976	     -7.49997090	    -48.18513598	    -10.57204504	    -10.81011365	     77.01956242	      4.13577657	     49.82263533	    115.29245823	     96.47596659	     92.23700717	    -12.43193154	     53.87547524	    117.34900834	     92.20228247
      1.93333330	     -5.69443630	     13.00978869	      1.27183549	      0.29033492	      0.71983497	     -0.11149602	     76.24901485	    -18.20376371	     13.16814999	     40.06580795	      0.69928027	    -13.12642842	     -1.57219122	     -7.49997482	     62.43144991	     18.49106663	     -6.46197157	     77.70440799	      1.35619776	     27.22183681	     -6.66652217	     -7.49997482	    -47.56063614	    -10.76877919	    -10.59987539	     77.32438988	      4.09349205	     50.21054086	    114.84872979	     94.64953321	     92.08024608	    -12.66145483	     53.98879649	    116.12605635	     90.32952809
      1.95000000	     -5.49538377	     12.81637690	      0.88862745	      0.29914387	      0.72357700	     -0.11309436	     75.67927834	    -18.12331383	     12.93244394	     39.75941741	      0.69393274	    -12.69791794	     -1.12558867	     -7.49997539	     61.83777981	     18.29304929	     -6.24023031	     77.34902398	      1.34999514	     27.24818594	     -6.31964409	     -7.49997539	    -46.74422803	    -11.04413512	    -10.16442833	     76.47169087	      3.47995273	     51.87844800	    116.34589263	     95.04430289	     90.63720377	    -12.23380040	     53.47337599	    116.34762361	     90.64059343
      1.96666670	     -5.01043340	     12.49320185	      0.41106183	      0.29834389	      0.73197376	     -0.11319057	     74.58920446	    -18.00891647	     12.71485941	     39.36242346	      0.68700389	    -12.23241297	     -0.85107540	     -7.49997644	     60.75195166	     18.20946469	     -5.70946979	     76.88157255	      1.34183658	     27.34411489	     -6.02631124	     -7.49997644	    -46.23450543	    -11.24778123	     -9.82422331	     75.63056368	      2.49213627	     52.01700052	    115.71915325	     95.56519623	     90.10611684	    -11.49325995	     53.15732773	    116.44097163	     91.32680661
      1.98333330	     -4.95056646	     12.29224759	      0.09734420	      0.29807926	      0.73682758	     -0.11248662	     74.07564236	    -17.93348818	     12.77994226	     39.03254463	      0.68124642	    -12.03073843	     -0.71896345	     -7.49997654	     60.13278719	     18.22623702	     -5.31305926	     76.32499993	      1.33212255	     27.32610238	     -5.93754775	     -7.49997654	    -45.63347937	    -11.55479382	     -9.76947608	     75.64682358	      2.30025770	     51.80283890	    115.49669439	     95.60595992	     90.35675350	    -11.64605534	     53.04511238	    116.46388480	     91.38276660
